<svg id="Layer_1" data-name="Layer 1" xmlns="http://www.w3.org/2000/svg" viewBox="0 0 50.53 50.53"><defs><style>.cls-1{fill:#d76aa9;stroke:#5eff28;stroke-miterlimit:10;stroke-width:0.53px;}</style></defs><title>Book</title><path class="cls-1" d="M331.2,376.49v34.12l-1-.43a26,26,0,0,0-13.68-1.69,13,13,0,0,0-7.75,4c-0.27.28-.53,0.59-0.86,1V413q0-16.63,0-33.25a1.5,1.5,0,0,1,.32-0.85,12.86,12.86,0,0,1,7.2-4.45,20.92,20.92,0,0,1,7.09-.3A23.27,23.27,0,0,1,331.2,376.49Z" transform="translate(-280.93 -373.7)"/><path class="cls-1" d="M281.2,410.61V376.49c0.37-.18.73-0.38,1.11-0.55a23.93,23.93,0,0,1,7.2-1.78,20.88,20.88,0,0,1,8,.4,12.7,12.7,0,0,1,6.68,4.31,1.59,1.59,0,0,1,.33.9q0,16.57,0,33.14c0,0.14,0,.29,0,0.51a13.19,13.19,0,0,0-8.2-4.85,25.56,25.56,0,0,0-11.46.72C283.56,409.61,282.39,410.16,281.2,410.61Z" transform="translate(-280.93 -373.7)"/><path class="cls-1" d="M331.2,418.49c-1.45-.51-2.87-1.15-4.35-1.52a23.4,23.4,0,0,0-9.68-.6,14.66,14.66,0,0,0-7.53,3.94c-1.08,1-2,2.17-3,3.29-0.42.48-.4,0.51-0.8,0a19,19,0,0,0-8.34-6.59,14.68,14.68,0,0,0-6-.83,27.21,27.21,0,0,0-6.79,1.05c-1,.31-2,0.74-3,1.11l-0.5.17v-4a16.9,16.9,0,0,1,5.56-1.89,45.62,45.62,0,0,1,6.11-.62,13.17,13.17,0,0,1,7.48,2.26,21.28,21.28,0,0,1,5.89,5.79,22,22,0,0,1,3.67-4.13,14.33,14.33,0,0,1,9.16-3.89,25.84,25.84,0,0,1,12,2.37,0.23,0.23,0,0,0,.1,0v4.1Z" transform="translate(-280.93 -373.7)"/></svg>