<svg id="Layer_1" data-name="Layer 1" xmlns="http://www.w3.org/2000/svg" viewBox="0 0 50 50"><defs><style>.cls-1{fill:#03f;}</style></defs><title>Message</title><path class="cls-1" d="M289.1,440.43c0-4.12,0-8.13,0-12.14a1.88,1.88,0,0,0-.64-1.54,20.09,20.09,0,0,1-5.72-9.48,19,19,0,0,1,2.51-15.7,23.18,23.18,0,0,1,10.58-8.82,27.76,27.76,0,0,1,15.64-2,25.91,25.91,0,0,1,12,5.06,20.88,20.88,0,0,1,7.42,10,19,19,0,0,1-2.15,17.08,23,23,0,0,1-10.28,8.63,27.87,27.87,0,0,1-15.88,2.08,1.43,1.43,0,0,0-.84.14q-6.07,3.16-12.13,6.36ZM307,408.66a4.1,4.1,0,0,0,.07,8.12,3.85,3.85,0,0,0,3.47-4.11A3.8,3.8,0,0,0,307,408.66Zm-14,4.09a3.55,3.55,0,1,0,3.51-4.09A3.8,3.8,0,0,0,293,412.75Zm24.39-4.09a4.11,4.11,0,1,0,3.5,4A3.81,3.81,0,0,0,317.41,408.66Z" transform="translate(-282.06 -390.43)"/></svg>